<?xml version="1.0" encoding="UTF-8"?>
<!DOCTYPE svg PUBLIC "-//W3C//DTD SVG 1.1//EN" "http://www.w3.org/Graphics/SVG/1.1/DTD/svg11.dtd">
<!-- Creator: CorelDRAW SE (64-Bit) -->
<svg xmlns="http://www.w3.org/2000/svg" xml:space="preserve" width="86.5342mm" height="19.3499mm" version="1.1" style="shape-rendering:geometricPrecision; text-rendering:geometricPrecision; image-rendering:optimizeQuality; fill-rule:evenodd; clip-rule:evenodd"
viewBox="0 0 8416.04 1881.91"
 xmlns:xlink="http://www.w3.org/1999/xlink"
 xmlns:xodm="http://www.corel.com/coreldraw/odm/2003">
 <defs>
  <style type="text/css">
   <![CDATA[
    .fil4 {fill:#5BA7DC;fill-rule:nonzero}
    .fil2 {fill:#6D8AC6;fill-rule:nonzero}
    .fil3 {fill:#7F7EBC;fill-rule:nonzero}
    .fil1 {fill:#8560A8;fill-rule:nonzero}
    .fil5 {fill:#AE619D;fill-rule:nonzero}
    .fil0 {fill:white;fill-rule:nonzero}
   ]]>
  </style>
 </defs>
 <g id="Layer_x0020_1">
  <metadata id="CorelCorpID_0Corel-Layer"/>
  <path class="fil0" d="M3478.28 399.1c0,-19.18 -15.56,-34.74 -34.74,-34.74l-1039.92 0c-19.17,0 -34.72,15.56 -34.72,34.74l0 6.31 0 873.23 0 6.31c0,19.17 15.55,34.72 34.73,34.72l1039.91 0c19.18,0 34.74,-15.55 34.74,-34.72l0 -80.01 0 -0.03 0 -6.28c0,-19.19 -15.56,-34.72 -34.74,-34.72l-915.48 0 0 -251.27 699.73 0c19.19,0 34.72,-15.55 34.72,-34.74l0 -6.27c0,-0.01 0.02,-0.03 0.02,-0.04l0 -75.13c0,-19.18 -15.55,-34.74 -34.74,-34.74l-699.73 0 0 -241.56 915.48 0c19.18,0 34.74,-15.54 34.74,-34.73l0 -80.01 0 -0.03 0 -6.28z"/>
  <path class="fil0" d="M4868.25 489.52c-51.02,-80.18 -167.69,-125.14 -356.02,-125.14l-711.35 0c-19.19,0 -34.73,15.53 -34.73,34.72l0 6.31 0 873.23 0 6.3c0,19.19 15.54,34.73 34.73,34.73l90.93 0c19.18,0 34.72,-15.54 34.72,-34.73l0 -241.11 582.06 0c179.81,0 300.11,-38.85 363.29,-132.42 34.02,-48.6 54.7,-117.88 54.7,-202.93 0,-1.03 -0.09,-1.97 -0.11,-3 0.02,-1.14 0.11,-2.19 0.11,-3.32 0,-93.56 -25.52,-165.27 -58.33,-212.66zm-128.8 313.5c-34,54.7 -108.13,83.85 -253.98,83.85l-558.94 0 0 -371.6 560.16 0c140.98,0 222.39,32.79 252.76,87.49 14.12,23.49 23.56,59.51 24.17,98.11 -0.32,41.42 -8.67,75.92 -24.17,102.14z"/>
  <path class="fil0" d="M5319.43 364.37l-95.77 0c-19.18,0 -34.74,15.55 -34.74,34.74l0 6.31 0 873.22 0 6.3c0,19.19 15.56,34.74 34.74,34.74l95.77 0c19.19,0 34.73,-15.55 34.73,-34.74l0 -6.3 0 0 0 -879.53c0,-19.19 -15.55,-34.74 -34.73,-34.74z"/>
  <path class="fil0" d="M8381.32 364.37l-83.65 0c-19.19,0 -34.72,15.55 -34.72,34.74l0 6.28c0,0 -0.02,0.01 -0.02,0.03l0 703.82 -802.48 -721.31c-16.87,-15.17 -38.75,-23.56 -61.44,-23.56l-105.01 0c-19.18,0 -34.74,15.55 -34.74,34.74l0 879.53c0,0 0.02,0.02 0.02,0.02l0 6.28c0,19.19 15.54,34.74 34.72,34.74l89.71 0c19.19,0 34.74,-15.55 34.74,-34.74l0 -713.76 801.22 724.76c16.89,15.27 38.87,23.74 61.65,23.74l99.99 0c19.19,0 34.72,-15.55 34.72,-34.74l0 -6.3 0 -873.22 0 -6.31c0,-19.19 -15.55,-34.74 -34.72,-34.74z"/>
  <path class="fil0" d="M7000.53 838.87c0,-133.64 -16.86,-294.09 -124.16,-377.93 -147.66,-115.36 -325.44,-115.24 -569.65,-115.24 -244.22,0 -422.01,-0.12 -569.64,115.24 -107.31,83.84 -124.17,244.29 -124.17,377.93 0,1.14 0.03,2.32 0.03,3.47 0,0.94 -0.03,1.9 -0.03,2.84 0,133.65 16.85,294.09 124.15,377.94 147.66,115.37 325.45,115.23 569.65,115.23 244.22,0 422.01,0.14 569.66,-115.23 107.28,-83.85 124.16,-244.29 124.16,-377.94 0,-1.16 -0.02,-2.36 -0.03,-3.54 0,-0.9 0.03,-1.85 0.03,-2.77zm-241.51 268.33c-108.47,77.47 -249.38,75.39 -452.3,75.39 -202.92,0 -343.83,2.07 -452.31,-75.39 -73.53,-52.51 -77.37,-179.46 -77.46,-264.53 0.06,-85.07 3.57,-213.05 77.46,-265.81 108.48,-77.47 249.4,-75.39 452.3,-75.39 202.93,0 343.84,-2.08 452.31,75.39 73.72,52.65 77.4,180.11 77.47,265.17 -0.08,85.07 -3.75,212.54 -77.47,265.17z"/>
  <path class="fil1" d="M295.16 1152.38c63.57,-43.31 90.58,-113.63 82.15,-180.53 -5.67,-44.98 5.91,-90.35 37.97,-122.41l429.14 -429.13c33.91,-33.92 81.7,-47.75 129.34,-42.12 25.48,3.01 52.65,0.62 81.04,-9.02 78.81,-26.79 129.43,-104.04 129.43,-187.25l0 -148.45c0,-18.49 -14.99,-33.48 -33.47,-33.48l-156.24 0c-104.76,0 -189.7,84.93 -189.7,189.7 0,6.91 0.42,13.7 1.19,20.39 5.54,47.8 -8.08,95.75 -42.1,129.77l-424.67 424.66c-32.53,32.53 -78.26,49.29 -123.8,42.82 -56.7,-8.08 -116.21,9.39 -159.88,53.07 -83.63,83.62 -72.86,225.92 32.34,294.43 62.34,40.61 145.78,39.45 207.26,-2.46z"/>
  <path class="fil2" d="M1699.84 697.66c-83.22,0 -160.43,50.62 -187.21,129.43 -9.66,28.38 -12.02,55.57 -9.02,81.06 5.63,47.62 -8.22,95.41 -42.13,129.32l-429.12 429.14c-32.07,32.06 -77.45,43.64 -122.41,37.98 -66.91,-8.43 -137.23,18.59 -180.55,82.14 -41.89,61.51 -43.06,144.92 -2.44,207.27 68.5,105.19 210.78,115.96 294.42,32.35 43.68,-43.69 61.15,-103.18 53.08,-159.89 -6.49,-45.55 10.29,-91.28 42.8,-123.8l424.7 -424.7c33.91,-33.91 81.72,-47.74 129.35,-42.13 25.46,3.01 52.65,0.64 81.03,-9 78.8,-26.77 129.43,-104.01 129.43,-187.22l0 -148.48c0,-18.5 -14.98,-33.48 -33.46,-33.48l-148.49 0z"/>
  <path class="fil3" d="M790.36 1172.02c34.01,-34.01 81.83,-47.5 129.61,-41.97 6.69,0.77 13.49,1.19 20.39,1.19 104.78,0 189.71,-84.93 189.71,-189.7l0 -156.24c0,-18.48 -14.99,-33.48 -33.47,-33.48l-156.24 0c-104.76,0 -189.7,84.93 -189.7,189.7l0 0.02c0,7.88 0.53,15.64 1.55,23.24 6.05,45.71 -7.39,91.81 -40,124.42l-345.02 345.04c-27.51,27.49 -65.09,41.11 -104,41.35 -9.31,0.05 -18.85,1.09 -28.59,3.25 -67.02,14.86 -112.85,77.2 -112.85,145.83 0,74.83 60.65,135.49 135.47,135.49 68.63,0 130.98,-45.84 145.84,-112.85 2.16,-9.75 3.18,-19.3 3.24,-28.6 0.25,-38.89 13.84,-76.45 41.34,-103.96 84.24,-84.25 251.51,-251.51 342.72,-342.73z"/>
  <path class="fil4" d="M1610.79 1475.77c-72.96,3.57 -131.46,62.07 -135.03,135.03 -4.04,82.44 67.29,149.36 149.83,149.36l101.08 0c18.48,0 33.48,-15 33.48,-33.48l0 -101.08c0,-82.54 -66.91,-153.87 -149.36,-149.83z"/>
  <path class="fil5" d="M271.09 406.14c72.95,-3.57 131.46,-62.09 135.03,-135.03 4.04,-82.44 -67.3,-149.36 -149.83,-149.36l-101.07 0c-18.49,0 -33.48,15 -33.48,33.48l0 101.06c0,82.54 66.91,153.89 149.35,149.85z"/>
  <polygon class="fil1" points="1561.92,139.98 1561.92,227.05 1540.86,227.05 1540.86,139.98 1493.92,139.98 1493.92,121.77 1608.73,121.77 1608.73,139.98 "/>
  <polygon class="fil1" points="1740.5,227.05 1740.5,151.66 1703.21,227.05 1682.4,227.05 1646.18,151.66 1646.18,227.05 1626.47,227.05 1626.47,121.77 1653.45,121.77 1693.28,204.13 1733.79,121.77 1760.21,121.77 1760.21,227.05 "/>
  <path class="fil0" d="M4483.95 1876.79l0 -283.6 -58.53 0 -116.69 233.39 -114.52 -233.39 -59.62 0 0 283.6 43 0 0 -218.21 106.93 218.21 46.98 0 109.46 -218.21 0 218.21 42.99 0zm401.16 0l0 -41.54 -220.38 0 0 -80.94 211.71 0 0 -41.18 -211.71 0 0 -78.76 217.86 0 0 -41.19 -261.93 0 0 283.6 264.46 0zm398.28 -54.19c13,-20.23 19.14,-46.97 19.14,-91.03 0,-41.92 -5.78,-68.29 -18.78,-88.16 -18.42,-32.14 -58.53,-50.21 -120.67,-50.21l-158.25 0 0 283.6 160.41 0c61.43,0 99,-19.87 118.15,-54.19zm-40.11 -20.59c-13.73,22.76 -42.63,34.32 -88.51,34.32l-105.49 0 0 -202.67 108.03 0c43.35,0 71.52,11.19 85.97,33.59 9.04,13 13.37,35.4 13.37,65.76 0,31.42 -3.98,55.27 -13.37,69zm218.72 74.78l0 -283.6 -45.88 0 0 283.6 45.88 0zm442.35 -105.84l-46.97 0c-1.44,13 -6.51,26 -15.53,35.76 -19.51,22.76 -50.58,32.51 -98.27,32.51 -40.11,0 -83.1,-11.2 -103.7,-40.47 -10.83,-13.72 -17.7,-33.95 -17.7,-64.31 0,-27.09 4.7,-47.33 15.17,-61.06 17.34,-27.82 53.84,-42.26 105.14,-42.26 49.85,0 81.28,13.72 97.9,32.86 9.4,10.12 14.81,22.05 16.62,36.13l46.97 0c-1.45,-15.89 -6.51,-34.67 -17.34,-50.57 -23.12,-34.32 -65.76,-61.42 -143.79,-61.42 -74.42,0 -118.86,23.85 -143.42,59.61 -15.89,20.59 -23.85,49.5 -23.85,86.35 0,41.18 9.75,71.52 26.74,92.84 24.57,33.59 71.89,53.83 143.43,53.83 73.34,0 117.06,-22.04 138.73,-57.08 12.28,-16.98 18.43,-37.21 19.87,-52.74zm148.27 35.76l176.67 0 36.13 70.08 48.41 0 -143.79 -283.6 -53.1 0 -148.49 283.6 47.33 0 36.84 -70.08zm157.89 -40.1l-138.38 0 57.44 -108.75 12.65 -26.38 12.64 26.38c0,0 56,108.75 55.64,108.75zm439.81 110.18l0 -41.54 -195.45 0 0 -242.06 -45.17 0 0 283.6 240.61 0z"/>
 </g>
</svg>
